<svg width="77" height="40" viewBox="0 0 77 40" fill="none" xmlns="http://www.w3.org/2000/svg">
<path d="M0.982961 0.000168324C2.97853 0.548667 4.98213 1.06977 6.96802 1.65252C9.25981 2.3248 11.536 3.04999 13.8172 3.7577C13.9724 3.80589 14.1136 3.89919 14.2551 4.19092C13.4425 4.15171 12.6188 4.1869 11.8202 4.06005C8.43304 3.52242 5.13993 2.63448 2.03106 1.16284C1.42752 0.877015 0.918473 0.392763 0.365723 0.000168324" fill="#F1EFE8"/>
<path d="M38.31 22.9731C37.1821 15.7553 37.2293 8.53667 38.31 1.31737C38.4844 1.31667 38.6587 1.31619 38.833 1.31548C39.9921 8.52013 39.994 15.7309 38.8713 22.9474C38.6842 22.9561 38.4971 22.9646 38.31 22.9731Z" fill="#F1EFE8"/>
<path d="M41.1324 3.58908C43.2602 8.4162 44.241 13.5145 44.785 18.875C42.0605 16.9432 40.2459 7.68038 41.1324 3.58908Z" fill="#F1EFE8"/>
<path d="M32.4512 18.7183C33.0084 13.4792 33.915 8.4123 35.9574 3.52471C37.399 6.20625 34.9213 16.9788 32.4512 18.7183Z" fill="#F1EFE8"/>
<path d="M14.8213 17.5652C18.5878 13.8519 22.6732 10.9213 27.2083 8.29437C26.6714 11.185 18.0931 17.6073 14.8213 17.5652Z" fill="#F1EFE8"/>
<path d="M67.112 14.4446C64.3607 15.4095 54.6106 11.0213 53.0378 8.14584C58.0705 9.66992 62.634 11.7158 67.112 14.4446Z" fill="#F1EFE8"/>
<path d="M24.1445 8.12861C23.1477 10.6465 12.8651 15.359 10.1902 14.5691C11.5997 13.0077 19.5196 9.33993 24.1445 8.12861Z" fill="#F1EFE8"/>
<path d="M43.6507 5.93667C46.5229 10.3561 49.0648 14.6196 50.6366 19.5386C47.7727 18.1203 43.4029 9.68332 43.6507 5.93667Z" fill="#F1EFE8"/>
<path d="M30.3899 7.80551C30.1785 10.8107 23.7314 18.3595 20.6868 19.2588C20.8826 17.8261 28.2724 9.06786 30.3899 7.80551Z" fill="#F1EFE8"/>
<path d="M33.5442 6.0007C34.0792 8.95485 29.4713 18.0329 26.7387 19.4082C26.6076 17.6191 31.9199 7.67525 33.5442 6.0007Z" fill="#F1EFE8"/>
<path d="M49.9917 8.43571C54.4482 11.0518 58.6127 13.8262 62.2448 17.4985C59.2562 17.6787 51.1749 11.704 49.9917 8.43571Z" fill="#F1EFE8"/>
<path d="M46.6741 7.58196C50.5452 11.1165 53.9295 14.7864 56.5504 19.1758C53.8679 18.8415 47.4304 11.3579 46.6741 7.58196Z" fill="#F1EFE8"/>
<path d="M5.99072 10.5243C10.7021 9.15378 15.2843 8.23608 20.0698 7.67955C18.639 9.3711 8.52794 11.4385 5.99072 10.5243Z" fill="#F1EFE8"/>
<path d="M62.708 4.13626C67.1451 2.38943 71.7214 1.13841 76.5083 0.151731C74.6833 1.9999 66.7969 4.29996 62.708 4.13626Z" fill="#F1EFE8"/>
<path d="M59.6448 5.81126C64.3975 5.66268 69.15 5.51386 74.1332 5.35796C72.3068 7.02046 61.8853 7.37904 59.6448 5.81126Z" fill="#F1EFE8"/>
<path d="M3.23323 5.37497C7.97483 5.51505 12.7169 5.65489 17.7264 5.80276C15.6413 7.32684 5.65943 7.08897 3.22095 5.66387C3.2252 5.56749 3.22898 5.47135 3.23323 5.37497Z" fill="#F1EFE8"/>
<path d="M57.2022 7.53711C61.7296 8.4397 66.257 9.34205 70.7843 10.2446C70.7527 10.4053 70.7208 10.5659 70.6891 10.7265C65.9624 10.8026 61.4268 9.89858 57.0815 8.01568C57.1219 7.85624 57.1621 7.69656 57.2022 7.53711Z" fill="#F1EFE8"/>
<path d="M68.7578 34.6133C69.7825 34.6133 70.7477 34.6546 71.7075 34.6005C72.4629 34.5575 72.8635 34.0416 72.7697 33.2916C72.7149 32.8535 72.5822 32.415 72.4203 32.0017C72.027 30.9954 71.5962 30.0037 71.1367 28.9011C70.3156 30.8725 69.5427 32.7285 68.7578 34.6133ZM76.9999 38.7407H74.201C74.9696 38.3344 74.9906 38.1969 74.7178 37.4248C74.076 35.608 72.5763 35.0333 71.193 35.0406C70.4465 35.0444 69.6998 35.0519 68.9536 35.0359C68.669 35.0295 68.5204 35.1186 68.4176 35.3961C68.1892 36.0112 67.9206 36.6115 67.6655 37.2171C67.3232 38.0292 67.4241 38.2655 68.2549 38.5884C68.3158 38.612 68.3742 38.6425 68.4276 38.7358C68.0128 38.7053 67.5977 38.6495 67.1832 38.6512C66.7514 38.6531 66.3198 38.71 65.8452 38.7003C66.9193 38.2988 67.1569 37.3128 67.5313 36.4208C68.6886 33.6625 69.8503 30.9063 71.0113 28.1501C71.0515 28.0545 71.0862 27.9489 71.1528 27.8742C71.2435 27.7717 71.3673 27.6203 71.4684 27.6267C71.5782 27.633 71.7242 27.7769 71.7755 27.895C72.2704 29.0371 72.7492 30.1868 73.2315 31.3341C73.3789 31.6849 73.5365 32.0321 73.6655 32.3898C74.0477 33.4483 73.8611 34.0712 72.9476 34.769C73.2979 34.9086 73.6314 35.0389 73.9629 35.1743C74.7251 35.4856 75.2583 36.0171 75.5443 36.7962C75.6691 37.1366 75.8087 37.4727 75.966 37.7992C76.176 38.2355 76.4708 38.5846 76.9999 38.6366" fill="#F1EFE8"/>
<path d="M58.5843 32.1115C59.6903 31.5649 60.5744 30.9602 60.8187 29.7639C60.9545 29.099 60.7783 28.5177 60.2426 28.0927C59.8067 27.7471 59.3144 27.7653 58.8262 28.0074C58.1267 28.3544 57.6498 29.33 57.8686 30.1218C58.0509 30.782 58.3297 31.4153 58.5843 32.1115ZM57.698 32.8714C56.7942 33.4225 55.971 34.1262 55.5643 35.1842C55.0321 36.5684 56.099 38.1275 57.5577 38.1133C58.5959 38.1034 59.4196 37.5887 60.1299 36.9419C59.3057 35.5626 58.5118 34.2339 57.698 32.8714ZM57.4901 32.6708C57.317 31.6565 57.0453 30.7492 57.0331 29.8384C57.0127 28.3091 58.6691 27.2076 60.1313 27.6715C61.1782 28.0039 61.722 29.1309 61.2155 30.1386C60.963 30.6415 60.5194 31.0742 60.0878 31.4546C59.7047 31.7921 59.2188 32.0132 58.6575 32.3605C59.3761 33.6261 60.0949 34.8922 60.8272 36.182C62.0444 35.0104 63.2394 32.6045 62.4127 31.7945H63.929C63.7107 32.0987 63.4454 32.4079 63.2491 32.7556C62.9095 33.3571 62.6421 34 62.2894 34.5932C61.9367 35.1861 61.5167 35.7393 61.1236 36.314C62.3515 38.1039 63.9209 38.7159 65.4155 37.1538C65.1382 37.921 64.6064 38.4506 63.812 38.6587C62.2941 39.0561 61.3292 38.1487 60.3982 37.1186C60.0153 37.4165 59.6416 37.7132 59.262 38.0016C58.384 38.6691 57.3935 38.9042 56.3197 38.6748C54.7455 38.3389 54.0071 36.889 54.6354 35.4072C54.9917 34.567 55.6134 33.9448 56.3452 33.4267C56.7536 33.1378 57.1802 32.8745 57.4901 32.6708Z" fill="#F1EFE8"/>
<path d="M10.0119 38.8762H8.51525C8.59533 38.5323 8.7595 38.1458 8.76257 37.7587C8.78312 34.7781 8.77509 31.7972 8.76824 28.8166C8.76706 28.4304 8.80674 27.9884 8.19824 27.9849C8.91469 27.5101 9.63917 27.8675 9.68736 28.7502C9.74051 29.718 9.71287 30.6901 9.71996 31.6602C9.72138 31.8284 9.71996 31.9968 9.71996 32.0986C10.2822 31.7512 10.7983 31.2738 11.4044 31.0857C13.3575 30.4794 15.1017 31.8511 15.2057 34.0288C15.2699 35.3778 15.2725 36.7299 15.2881 38.0809C15.2926 38.4857 15.4069 38.7423 15.9497 38.6419C15.1631 39.1417 14.5587 38.9327 14.3879 38.143C14.3047 37.7594 14.3127 37.354 14.2981 36.9579C14.2537 35.7825 14.2783 34.6009 14.163 33.4328C14.0524 32.3162 13.3296 31.5641 12.3892 31.3763C11.4148 31.1819 10.4888 31.6061 9.93043 32.5427C9.80547 32.753 9.73224 33.0263 9.72941 33.2717C9.71122 34.7792 9.70012 36.2875 9.7339 37.7943C9.74264 38.1727 9.92334 38.5476 10.0119 38.8762Z" fill="#F1EFE8"/>
<path d="M1.27062 33.4331C2.54029 33.3363 3.77689 33.3445 4.97003 33.1218C6.17262 32.8974 6.76812 31.9407 6.75867 30.6651C6.74899 29.3907 6.13128 28.4706 4.90814 28.2606C3.728 28.0577 2.51242 28.0608 1.27062 27.9703V33.4331ZM1.24747 33.6303C1.24747 35.2109 1.23306 36.7319 1.26377 38.2517C1.26802 38.4714 1.48912 38.6866 1.59542 38.8779H0C0.0824401 38.5534 0.260313 38.1733 0.263384 37.792C0.286533 34.8112 0.284409 31.8301 0.265275 28.8495C0.263149 28.4978 0.111968 28.147 0.0245676 27.7733C0.525586 27.7733 1.15109 27.7551 1.77542 27.7773C2.96926 27.8196 4.18272 27.766 5.35129 27.9663C7.61898 28.3554 8.5322 30.7945 7.10473 32.4604C6.51844 33.1444 5.71695 33.4222 4.85594 33.5238C4.255 33.5947 3.64627 33.6093 3.0406 33.6268C2.46943 33.6431 1.89731 33.6303 1.24747 33.6303Z" fill="#F1EFE8"/>
<path d="M34.6219 38.8772H33.1085C33.1977 38.547 33.3851 38.165 33.3919 37.78C33.4236 35.9432 33.4066 34.1051 33.4049 32.2676C33.4044 32.1119 33.3872 31.9565 33.3785 31.8008C33.3577 31.4276 33.3007 31.0891 32.6226 31.2991C33.5733 30.6611 34.02 30.9242 34.3937 32.1351C34.4223 32.1351 34.4655 32.1476 34.478 32.1332C35.4921 30.9731 36.4597 30.6927 37.8534 31.1578C39.0418 31.5545 39.723 32.4913 39.7956 33.9459C39.8515 35.0701 39.8343 36.1978 39.853 37.3238C39.8572 37.5834 39.8858 37.8431 39.8825 38.1024C39.8766 38.5002 40.0211 38.7324 40.5224 38.6434C39.7757 39.1441 39.1578 38.9228 38.9823 38.1336C38.9156 37.8336 38.9185 37.5164 38.9064 37.2064C38.8566 35.9448 38.9008 34.6718 38.7449 33.4237C38.5672 32.0054 37.5536 31.2514 36.2239 31.3463C35.25 31.4158 34.3798 32.3432 34.3755 33.3152C34.3689 34.806 34.3434 36.297 34.3684 37.7873C34.3744 38.1655 34.5397 38.5413 34.6219 38.8772Z" fill="#F1EFE8"/>
<path d="M23.9965 35.6205C23.8354 34.086 23.3486 32.574 21.7855 31.6475C20.1313 30.667 18.2829 31.2663 17.6664 32.9651C17.0435 34.6824 17.7058 36.8935 19.1895 37.9446C20.2376 38.6873 21.3698 38.9155 22.5651 38.3023C23.5893 37.7769 23.9545 36.8632 23.9965 35.6205ZM20.6666 39.0742C18.3731 39.0745 16.5488 37.2608 16.5299 34.9612C16.511 32.6692 18.3661 30.786 20.6621 30.7671C22.9624 30.7482 24.8358 32.6451 24.8259 34.9829C24.8165 37.2535 22.9655 39.074 20.6666 39.0742Z" fill="#F1EFE8"/>
<path d="M51.3469 30.9894C50.3283 31.5724 49.8625 32.6004 49.1817 33.4395C48.868 33.8262 48.393 34.2587 48.3911 34.6723C48.3892 35.0845 48.8784 35.5054 49.1692 35.9108C49.8741 36.8939 50.5886 37.8697 51.3141 38.8685H49.6889C49.6584 38.6845 49.6877 38.4286 49.5776 38.2682C48.9134 37.2995 48.2172 36.3525 47.4821 35.329C47.0253 35.9316 46.6017 36.4895 46.1789 37.0477C45.9592 37.338 45.7398 37.6283 45.5222 37.92C45.1261 38.4508 45.14 38.517 45.7594 38.8774H44.1323C45.484 37.874 46.1572 36.3005 47.2849 35.0299C46.2432 33.6313 45.227 32.2671 44.2757 30.9901H45.8295C45.8652 31.143 45.8591 31.3303 45.9455 31.4522C46.6351 32.4256 47.3423 33.3866 48.0684 34.385C48.7374 33.491 49.3794 32.6373 50.0163 31.7798C50.3812 31.2887 49.9253 31.1734 49.609 30.9894" fill="#F1EFE8"/>
<path d="M26.5509 33.3268C27.8844 33.3268 29.1637 33.3492 30.4415 33.3166C30.9992 33.3024 31.2278 32.8841 30.9992 32.3623C30.8919 32.1166 30.7178 31.8813 30.522 31.6968C29.8332 31.0487 29.0036 30.9627 28.1485 31.252C27.1939 31.575 26.8167 32.3807 26.5509 33.3268ZM31.9393 37.6377C31.512 38.2883 31.0514 38.7002 30.4511 38.8739C29.1016 39.2648 27.8506 39.1354 26.8063 38.0625C25.0585 36.2672 25.2822 32.9025 27.2702 31.4422C28.2838 30.6976 29.3903 30.6313 30.5182 31.1313C31.4851 31.5598 31.8536 32.4152 32.0494 33.442H27.4731C26.4543 33.442 26.4569 33.442 26.4569 34.4868C26.4569 35.6544 26.8068 36.7002 27.5423 37.6113C28.6923 39.0357 30.6233 39.0432 31.6036 37.804C31.6466 37.7495 31.7392 37.7341 31.9393 37.6377Z" fill="#F1EFE8"/>
<path d="M43.3725 38.6695C42.4675 39.1946 41.8056 38.7893 41.7955 37.731C41.7796 36.0872 41.7915 34.4431 41.79 32.7992C41.7896 32.4707 41.8044 32.14 41.7733 31.8137C41.7175 31.2293 41.581 31.1488 40.9893 31.3132C41.2942 30.957 41.6745 30.8486 42.0752 31C42.5537 31.1807 42.7125 31.6108 42.7153 32.0899C42.7257 33.9066 42.7259 35.7236 42.7314 37.5404C42.7321 37.7305 42.7349 37.9212 42.7479 38.1109C42.7739 38.4886 42.9064 38.7574 43.3725 38.6695Z" fill="#F1EFE8"/>
<path d="M41.2266 29.6962C41.4165 29.5642 41.6085 29.3275 41.7954 29.3318C41.9558 29.3353 42.2265 29.6079 42.2345 29.7721C42.2418 29.9273 41.981 30.2145 41.8204 30.2277C41.6343 30.2433 41.4285 30.0229 41.2315 29.9051C41.2299 29.8354 41.2282 29.7659 41.2266 29.6962Z" fill="#F1EFE8"/>
</svg>
