<svg width="95" height="48" viewBox="0 0 95 48" fill="none" xmlns="http://www.w3.org/2000/svg">
<path d="M1.20742 0.000106812C3.65875 0.673872 6.11994 1.31398 8.55936 2.02982C11.3746 2.85564 14.1706 3.74645 16.9727 4.61579C17.1634 4.67498 17.3369 4.78959 17.5107 5.14795C16.5125 5.09978 15.5007 5.14302 14.5197 4.9872C10.359 4.32678 6.31377 3.23605 2.49489 1.42831C1.75352 1.07721 1.12821 0.482363 0.449219 0.000106812" fill="#1E201E"/>
<path d="M47.0595 28.2197C45.674 19.3534 45.732 10.4862 47.0595 1.61816C47.2736 1.61729 47.4878 1.61671 47.7019 1.61584C49.1258 10.4659 49.1281 19.3235 47.7489 28.1881C47.5191 28.1988 47.2893 28.2093 47.0595 28.2197Z" fill="#1E201E"/>
<path d="M50.5262 4.40859C53.1401 10.3381 54.3448 16.6008 55.0131 23.1855C51.6663 20.8126 49.4372 9.43427 50.5262 4.40859Z" fill="#1E201E"/>
<path d="M39.8623 22.9932C40.5468 16.5576 41.6605 10.3335 44.1692 4.32967C45.9401 7.62363 42.8966 20.8564 39.8623 22.9932Z" fill="#1E201E"/>
<path d="M18.2061 21.5769C22.8328 17.0155 27.8512 13.4157 33.4221 10.1887C32.7625 13.7395 22.2251 21.6285 18.2061 21.5769Z" fill="#1E201E"/>
<path d="M82.4393 17.7436C79.0597 18.9289 67.0828 13.5385 65.1509 10.0063C71.3329 11.8785 76.9386 14.3916 82.4393 17.7436Z" fill="#1E201E"/>
<path d="M29.6589 9.98475C28.4344 13.0776 15.8034 18.8664 12.5176 17.8961C14.249 15.9781 23.9777 11.4727 29.6589 9.98475Z" fill="#1E201E"/>
<path d="M53.6198 7.29263C57.148 12.7214 60.2704 17.9586 62.2012 24.001C58.6832 22.2588 53.3154 11.895 53.6198 7.29263Z" fill="#1E201E"/>
<path d="M37.3303 9.58822C37.0706 13.2797 29.1511 22.5526 25.4111 23.6572C25.6517 21.8974 34.7292 11.1389 37.3303 9.58822Z" fill="#1E201E"/>
<path d="M41.2049 7.37128C41.8621 11.0001 36.2019 22.1515 32.8452 23.8408C32.6842 21.6431 39.2097 9.42827 41.2049 7.37128Z" fill="#1E201E"/>
<path d="M61.4092 10.3626C66.8835 13.5762 71.9991 16.9842 76.4607 21.4951C72.7895 21.7165 62.8626 14.3773 61.4092 10.3626Z" fill="#1E201E"/>
<path d="M57.3335 9.31402C62.0887 13.6558 66.246 18.1638 69.4653 23.5557C66.1702 23.1451 58.2626 13.9523 57.3335 9.31402Z" fill="#1E201E"/>
<path d="M7.35889 12.9282C13.1463 11.2446 18.7749 10.1174 24.6534 9.43372C22.8958 11.5116 10.4756 14.0511 7.35889 12.9282Z" fill="#1E201E"/>
<path d="M77.0293 5.08066C82.4798 2.93489 88.1012 1.39816 93.9814 0.186136C91.7396 2.4564 82.0521 5.28175 77.0293 5.08066Z" fill="#1E201E"/>
<path d="M73.2666 7.13867C79.1047 6.95616 84.9426 6.77336 91.0639 6.58185C88.8204 8.62404 76.0188 9.06451 73.2666 7.13867Z" fill="#1E201E"/>
<path d="M3.97163 6.60252C9.79613 6.77459 15.6212 6.94636 21.7748 7.128C19.2135 9.00016 6.95193 8.70796 3.95654 6.95739C3.96177 6.839 3.96641 6.7209 3.97163 6.60252Z" fill="#1E201E"/>
<path d="M70.2664 9.25838C75.8278 10.3671 81.3891 11.4755 86.9504 12.5843C86.9115 12.7816 86.8724 12.9789 86.8335 13.1762C81.0272 13.2696 75.4558 12.1592 70.1182 9.84625C70.1678 9.65039 70.2171 9.45424 70.2664 9.25838Z" fill="#1E201E"/>
<path d="M84.4611 42.5183C85.7198 42.5183 86.9054 42.5691 88.0844 42.5026C89.0123 42.4498 89.5044 41.8161 89.3892 40.8948C89.3219 40.3566 89.1588 39.818 88.9601 39.3102C88.477 38.0741 87.9477 36.856 87.3833 35.5015C86.3747 37.9232 85.4253 40.2031 84.4611 42.5183ZM94.5855 47.5884H91.1473C92.0915 47.0893 92.1174 46.9204 91.7822 45.9719C90.9939 43.7402 89.1516 43.0342 87.4524 43.0432C86.5355 43.0479 85.6182 43.0571 84.7016 43.0374C84.352 43.0296 84.1694 43.139 84.0432 43.4799C83.7626 44.2355 83.4327 44.9728 83.1193 45.7168C82.6989 46.7144 82.8228 47.0046 83.8433 47.4012C83.9182 47.4302 83.9898 47.4677 84.0554 47.5823C83.5459 47.5449 83.036 47.4764 82.5268 47.4784C81.9964 47.4807 81.4662 47.5507 80.8833 47.5388C82.2027 47.0455 82.4946 45.8343 82.9545 44.7387C84.376 41.3504 85.8031 37.9647 87.2292 34.5791C87.2786 34.4616 87.3212 34.3318 87.4031 34.2402C87.5145 34.1142 87.6665 33.9282 87.7907 33.9361C87.9256 33.9439 88.105 34.1206 88.1679 34.2657C88.7758 35.6686 89.364 37.0809 89.9565 38.4902C90.1376 38.9211 90.3311 39.3477 90.4895 39.787C90.959 41.0872 90.7298 41.8524 89.6077 42.7095C90.0381 42.881 90.4478 43.0412 90.8549 43.2075C91.7912 43.5899 92.4461 44.2428 92.7975 45.1997C92.9507 45.6179 93.1222 46.0308 93.3155 46.4318C93.5734 46.9677 93.9356 47.3966 94.5855 47.4604" fill="#1E201E"/>
<path d="M71.9637 39.4451C73.3223 38.7736 74.4084 38.0308 74.7084 36.5614C74.8752 35.7446 74.6588 35.0305 74.0007 34.5085C73.4653 34.084 72.8606 34.1063 72.2609 34.4037C71.4017 34.83 70.8158 36.0284 71.0845 37.001C71.3085 37.812 71.6509 38.59 71.9637 39.4451ZM70.875 40.3785C69.7648 41.0555 68.7536 41.9199 68.2539 43.2196C67.6002 44.9199 68.9109 46.835 70.7027 46.8176C71.9779 46.8054 72.9898 46.1732 73.8623 45.3787C72.8499 43.6844 71.8746 42.0522 70.875 40.3785ZM70.6197 40.1322C70.407 38.8862 70.0733 37.7717 70.0582 36.6528C70.0332 34.7743 72.0679 33.4212 73.864 33.9911C75.15 34.3994 75.818 35.7838 75.1959 37.0216C74.8857 37.6394 74.3408 38.1709 73.8106 38.6381C73.34 39.0528 72.7431 39.3244 72.0537 39.7509C72.9364 41.3056 73.8193 42.8609 74.7189 44.4452C76.2141 43.006 77.682 40.0506 76.6664 39.0557H78.529C78.2609 39.4294 77.9351 39.8092 77.6939 40.2364C77.2767 40.9751 76.9482 41.765 76.515 42.4936C76.0818 43.2219 75.5658 43.9014 75.083 44.6074C76.5913 46.806 78.5192 47.5578 80.355 45.639C80.0144 46.5814 79.3612 47.232 78.3854 47.4876C76.5208 47.9757 75.3355 46.8611 74.1919 45.5957C73.7215 45.9616 73.2625 46.3261 72.7962 46.6804C71.7177 47.5004 70.501 47.7891 69.1819 47.5073C67.2482 47.0947 66.3412 45.3137 67.113 43.4935C67.5506 42.4613 68.3143 41.697 69.2132 41.0607C69.7149 40.7058 70.239 40.3823 70.6197 40.1322Z" fill="#1E201E"/>
<path d="M12.2982 47.7547H10.4597C10.5581 47.3322 10.7597 46.8575 10.7635 46.3819C10.7888 42.7206 10.7789 39.059 10.7705 35.3977C10.769 34.9233 10.8178 34.3804 10.0703 34.376C10.9504 33.7928 11.8403 34.2318 11.8995 35.3162C11.9648 36.505 11.9309 37.699 11.9396 38.8907C11.9413 39.0973 11.9396 39.3042 11.9396 39.4293C12.6302 39.0024 13.2642 38.416 14.0087 38.185C16.4078 37.4402 18.5504 39.1252 18.6781 41.8002C18.757 43.4574 18.7602 45.1183 18.7794 46.7777C18.7849 47.2751 18.9253 47.5902 19.5921 47.4669C18.6259 48.0809 17.8833 47.8241 17.6735 46.854C17.5714 46.3828 17.5813 45.8849 17.5633 45.3983C17.5087 43.9544 17.5389 42.503 17.3973 41.0681C17.2615 39.6965 16.3736 38.7726 15.2184 38.5419C14.0215 38.3031 12.8841 38.8243 12.1981 39.9748C12.0446 40.233 11.9547 40.5688 11.9512 40.8702C11.9288 42.7221 11.9152 44.5748 11.9567 46.4258C11.9674 46.8906 12.1894 47.3511 12.2982 47.7547Z" fill="#1E201E"/>
<path d="M1.56081 41.0685C3.12045 40.9495 4.63947 40.9597 6.1051 40.6861C7.58233 40.4104 8.31384 39.2352 8.30223 37.6683C8.29034 36.1029 7.53155 34.9727 6.02907 34.7147C4.5794 34.4655 3.08621 34.4693 1.56081 34.3581V41.0685ZM1.53237 41.3108C1.53237 43.2523 1.51467 45.1207 1.55239 46.9876C1.55761 47.2575 1.82921 47.5218 1.95978 47.7568H0C0.101268 47.3581 0.319764 46.8913 0.323536 46.4229C0.351972 42.7613 0.349363 39.0994 0.32586 35.4381C0.323248 35.0061 0.13754 34.5752 0.0301784 34.1161C0.645621 34.1161 1.41398 34.0938 2.18089 34.1211C3.64739 34.173 5.13797 34.1071 6.57343 34.3532C9.35902 34.8311 10.4808 37.8274 8.72733 39.8736C8.00714 40.7139 7.0226 41.0552 5.96495 41.1799C5.22677 41.267 4.47901 41.285 3.73502 41.3064C3.0334 41.3265 2.33062 41.3108 1.53237 41.3108Z" fill="#1E201E"/>
<path d="M42.5292 47.7563H40.6701C40.7798 47.3506 41.0099 46.8815 41.0183 46.4085C41.0572 44.1521 41.0363 41.8944 41.0343 39.6372C41.0337 39.4459 41.0125 39.255 41.0018 39.0638C40.9762 38.6053 40.9063 38.1895 40.0732 38.4475C41.2412 37.6637 41.7899 37.987 42.2489 39.4744C42.284 39.4744 42.3371 39.4898 42.3525 39.4721C43.5982 38.047 44.7867 37.7026 46.4987 38.274C47.9585 38.7611 48.7953 39.9119 48.8844 41.6988C48.9532 43.0797 48.932 44.4649 48.9549 45.8482C48.9602 46.1671 48.9953 46.486 48.9912 46.8046C48.984 47.2932 49.1615 47.5784 49.7773 47.469C48.8601 48.0842 48.101 47.8123 47.8854 46.8429C47.8036 46.4743 47.807 46.0847 47.7922 45.704C47.731 44.1542 47.7853 42.5905 47.5938 41.0572C47.3756 39.3151 46.1305 38.3889 44.4971 38.5055C43.3008 38.5908 42.2318 39.73 42.2266 40.924C42.2184 42.7553 42.1871 44.5868 42.2179 46.4175C42.2251 46.882 42.4282 47.3437 42.5292 47.7563Z" fill="#1E201E"/>
<path d="M29.4767 43.7555C29.2788 41.8706 28.6808 40.0133 26.7608 38.8752C24.7287 37.6707 22.4582 38.4069 21.7008 40.4938C20.9357 42.6033 21.7493 45.3192 23.5718 46.6105C24.8593 47.5228 26.2501 47.8031 27.7183 47.0498C28.9765 46.4045 29.4251 45.2821 29.4767 43.7555ZM25.3863 47.998C22.569 47.9983 20.3281 45.7704 20.3049 42.9457C20.2816 40.1302 22.5603 37.817 25.3807 37.7938C28.2064 37.7706 30.5077 40.1006 30.4955 42.9724C30.4839 45.7614 28.2101 47.9978 25.3863 47.998Z" fill="#1E201E"/>
<path d="M63.0737 38.0668C61.8225 38.783 61.2503 40.0458 60.414 41.0764C60.0287 41.5514 59.4451 42.0827 59.4428 42.5908C59.4405 43.0971 60.0414 43.6142 60.3986 44.1122C61.2645 45.3198 62.1422 46.5185 63.0333 47.7453H61.037C60.9996 47.5193 61.0355 47.205 60.9003 47.008C60.0844 45.818 59.2293 44.6548 58.3263 43.3975C57.7651 44.1377 57.2448 44.8231 56.7254 45.5087C56.4556 45.8653 56.186 46.2219 55.9188 46.5803C55.4322 47.2323 55.4493 47.3136 56.2101 47.7563H54.2114C55.8718 46.5237 56.6987 44.5909 58.084 43.0301C56.8043 41.3121 55.5561 39.6363 54.3876 38.0677H56.2963C56.3401 38.2554 56.3325 38.4855 56.4387 38.6353C57.2857 39.831 58.1545 41.0114 59.0465 42.238C59.8682 41.1397 60.6569 40.091 61.4392 39.0377C61.8875 38.4345 61.3275 38.2929 60.9389 38.0668" fill="#1E201E"/>
<path d="M32.6148 40.9381C34.2528 40.9381 35.8244 40.9657 37.3939 40.9256C38.079 40.9082 38.3598 40.3943 38.079 39.7534C37.9472 39.4516 37.7334 39.1626 37.4928 38.936C36.6467 38.1398 35.6276 38.0341 34.5772 38.3896C33.4047 38.7862 32.9413 39.776 32.6148 40.9381ZM39.2338 46.2336C38.7089 47.0328 38.1431 47.5388 37.4058 47.7521C35.748 48.2323 34.2113 48.0733 32.9285 46.7554C30.7816 44.5501 31.0564 40.417 33.4984 38.6232C34.7435 37.7086 36.1026 37.627 37.4882 38.2413C38.6758 38.7677 39.1285 39.8184 39.369 41.0797H33.7476C32.4962 41.0797 32.4994 41.0797 32.4994 42.3631C32.4994 43.7974 32.9291 45.082 33.8327 46.2012C35.2452 47.9509 37.6173 47.9601 38.8215 46.4379C38.8743 46.3709 38.988 46.352 39.2338 46.2336Z" fill="#1E201E"/>
<path d="M53.2781 47.501C52.1664 48.1461 51.3534 47.6481 51.3409 46.3482C51.3215 44.3289 51.336 42.3094 51.3342 40.2901C51.3337 39.8865 51.3519 39.4802 51.3136 39.0795C51.2452 38.3616 51.0775 38.2627 50.3506 38.4647C50.7252 38.0271 51.1924 37.8939 51.6845 38.0799C52.2724 38.3019 52.4674 38.8303 52.4708 39.4187C52.4836 41.6504 52.4839 43.8824 52.4906 46.114C52.4914 46.3476 52.4949 46.5818 52.5109 46.8148C52.5428 47.2787 52.7056 47.609 53.2781 47.501Z" fill="#1E201E"/>
<path d="M50.6416 36.4785C50.8749 36.3163 51.1108 36.0255 51.3403 36.0308C51.5373 36.0351 51.8699 36.37 51.8797 36.5716C51.8887 36.7623 51.5684 37.1151 51.3711 37.1314C51.1424 37.1505 50.8897 36.8798 50.6477 36.735C50.6457 36.6494 50.6436 36.5641 50.6416 36.4785Z" fill="#1E201E"/>
</svg>
